<svg xmlns="http://www.w3.org/2000/svg" xmlns:xlink="http://www.w3.org/1999/xlink" width="500" zoomAndPan="magnify" viewBox="0 0 375 374.999991" height="500" preserveAspectRatio="xMidYMid meet" version="1.0"><defs><g/><clipPath id="f4008dc45e"><path d="M 26 148.40625 L 135.457031 148.40625 L 135.457031 244.40625 L 26 244.40625 Z M 26 148.40625 " clip-rule="nonzero"/></clipPath></defs><rect x="-37.5" width="450" fill="#ffffff" y="-37.499999" height="449.999989" fill-opacity="1"/><rect x="-37.5" width="450" fill="#fefffe" y="-37.499999" height="449.999989" fill-opacity="1"/><g clip-path="url(#f4008dc45e)"><path fill="#4b7b4b" d="M 119.050781 239.433594 C 108.128906 238.558594 94.207031 235.355469 85.378906 230.035156 C 86.398438 229.476562 87.8125 228.671875 89.5 227.597656 C 92.8125 225.488281 97.570312 222.101562 101.4375 217.925781 C 103.105469 216.121094 104.464844 214.078125 105.46875 211.851562 C 106.472656 209.632812 107.101562 207.285156 107.339844 204.875 C 107.417969 204.097656 107.464844 203.40625 107.480469 202.820312 C 107.542969 200.683594 107.148438 198.59375 106.3125 196.601562 C 105.511719 194.699219 104.347656 192.980469 102.851562 191.492188 C 101.351562 190.003906 99.609375 188.832031 97.664062 188.007812 C 95.625 187.144531 93.476562 186.707031 91.265625 186.707031 L 91.214844 186.707031 C 87.371094 186.71875 83.679688 188.035156 80.777344 190.421875 C 77.859375 188.023438 74.148438 186.707031 70.285156 186.707031 C 68.628906 186.707031 66.960938 186.949219 65.324219 187.425781 C 62.847656 188.148438 60.566406 189.472656 58.730469 191.253906 C 56.894531 193.035156 55.53125 195.246094 54.792969 197.640625 C 54.515625 198.539062 54.316406 199.574219 54.199219 200.71875 C 53.542969 207.226562 55.898438 213.75 60.65625 218.609375 C 64.554688 222.585938 69.222656 225.804688 72.453125 227.800781 C 73.988281 228.75 75.285156 229.480469 76.257812 230 C 67.429688 235.34375 53.476562 238.554688 42.527344 239.433594 L 42.527344 185.972656 L 46.6875 182.542969 L 52.457031 177.789062 L 81.039062 154.222656 L 106.117188 176.871094 L 107.136719 177.789062 L 112.402344 182.542969 L 112.59375 182.71875 L 119.050781 188.546875 Z M 81.214844 226.535156 C 81.117188 226.542969 81.019531 226.554688 80.921875 226.566406 C 80.882812 226.570312 80.839844 226.574219 80.792969 226.582031 L 80.789062 226.582031 C 80.742188 226.578125 80.695312 226.570312 80.65625 226.566406 C 80.628906 226.5625 80.597656 226.558594 80.566406 226.554688 C 79.558594 226.085938 77.484375 225.011719 74.929688 223.414062 C 72.035156 221.605469 67.855469 218.710938 64.402344 215.1875 C 60.667969 211.375 58.820312 206.273438 59.332031 201.199219 C 59.417969 200.375 59.550781 199.65625 59.734375 199.066406 C 60.753906 195.757812 63.402344 193.191406 66.816406 192.195312 C 67.96875 191.859375 69.132812 191.6875 70.285156 191.6875 C 74.046875 191.6875 77.519531 193.515625 79.570312 196.574219 C 79.839844 196.96875 80.289062 197.207031 80.777344 197.207031 C 81.265625 197.207031 81.714844 196.96875 81.980469 196.570312 C 84.027344 193.523438 87.484375 191.699219 91.230469 191.6875 L 91.265625 191.6875 C 94.183594 191.6875 97.054688 192.882812 99.152344 194.964844 C 101.25 197.050781 102.40625 199.863281 102.328125 202.679688 C 102.3125 203.152344 102.273438 203.730469 102.207031 204.398438 C 101.832031 208.167969 100.195312 211.792969 97.589844 214.601562 C 94.175781 218.292969 89.933594 221.335938 86.976562 223.238281 C 84.375 224.910156 82.257812 226.039062 81.214844 226.535156 Z M 80.867188 226.691406 C 80.828125 226.675781 80.785156 226.65625 80.738281 226.636719 C 80.753906 226.632812 80.773438 226.632812 80.789062 226.628906 C 80.84375 226.636719 80.898438 226.644531 80.957031 226.65625 C 80.925781 226.667969 80.894531 226.679688 80.867188 226.691406 Z M 134.464844 195.957031 L 123.972656 186.484375 L 115.953125 179.242188 C 115.960938 179.171875 115.960938 179.101562 115.960938 179.027344 L 115.960938 165.972656 C 115.960938 164.765625 114.949219 163.785156 113.699219 163.785156 L 108.378906 163.785156 C 107.128906 163.785156 106.117188 164.765625 106.117188 165.972656 L 106.117188 170.363281 L 82.792969 149.300781 C 81.878906 148.472656 80.46875 148.441406 79.515625 149.226562 L 44.875 177.789062 L 37.605469 183.78125 L 27.105469 192.4375 C 26.070312 193.292969 25.949219 194.792969 26.832031 195.789062 C 27.710938 196.789062 29.265625 196.90625 30.300781 196.054688 L 37.605469 190.03125 L 37.605469 241.859375 C 37.605469 243.175781 38.707031 244.238281 40.066406 244.238281 L 41.785156 244.238281 C 41.785156 244.238281 42.371094 244.214844 42.527344 244.203125 C 49.363281 243.683594 57.027344 242.300781 63.675781 240.371094 C 67.710938 239.203125 71.378906 237.839844 74.574219 236.328125 C 76.898438 235.230469 78.976562 234.042969 80.789062 232.789062 C 81.695312 233.414062 82.667969 234.027344 83.707031 234.617188 C 84.742188 235.207031 85.84375 235.777344 87.007812 236.328125 C 90.199219 237.839844 93.867188 239.203125 97.90625 240.371094 C 104.554688 242.300781 112.214844 243.683594 119.050781 244.203125 C 119.207031 244.214844 119.792969 244.238281 119.792969 244.238281 L 121.511719 244.238281 C 122.871094 244.238281 123.972656 243.175781 123.972656 241.859375 L 123.972656 192.992188 L 131.105469 199.429688 C 131.578125 199.859375 132.183594 200.070312 132.785156 200.070312 C 133.441406 200.070312 134.097656 199.820312 134.582031 199.316406 C 135.511719 198.359375 135.457031 196.855469 134.464844 195.957031 " fill-opacity="1" fill-rule="nonzero"/></g><path fill="#4b7b4b" d="M 86.253906 206.667969 L 83.25 206.667969 L 83.25 203.664062 C 83.25 202.277344 82.125 201.15625 80.742188 201.15625 C 79.359375 201.15625 78.238281 202.277344 78.238281 203.664062 L 78.238281 206.667969 L 75.234375 206.667969 C 73.847656 206.667969 72.726562 207.789062 72.726562 209.171875 C 72.726562 210.554688 73.847656 211.675781 75.234375 211.675781 L 78.238281 211.675781 L 78.238281 214.683594 C 78.238281 216.066406 79.359375 217.1875 80.742188 217.1875 C 82.125 217.1875 83.25 216.066406 83.25 214.683594 L 83.25 211.675781 L 86.253906 211.675781 C 87.636719 211.675781 88.757812 210.554688 88.757812 209.171875 C 88.757812 207.789062 87.636719 206.667969 86.253906 206.667969 " fill-opacity="1" fill-rule="nonzero"/><g fill="#4b7b4b" fill-opacity="1"><g transform="translate(142.090968, 172.158608)"><g><path d="M 9.78125 -17.578125 C 12.414062 -17.578125 14.492188 -16.765625 16.015625 -15.140625 C 17.535156 -13.515625 18.296875 -11.335938 18.296875 -8.609375 C 18.296875 -5.898438 17.535156 -3.726562 16.015625 -2.09375 C 14.492188 -0.46875 12.414062 0.34375 9.78125 0.34375 C 7.15625 0.34375 5.078125 -0.46875 3.546875 -2.09375 C 2.023438 -3.726562 1.265625 -5.898438 1.265625 -8.609375 C 1.265625 -11.335938 2.019531 -13.515625 3.53125 -15.140625 C 5.050781 -16.765625 7.132812 -17.578125 9.78125 -17.578125 Z M 6.171875 -3.90625 C 7.046875 -2.78125 8.25 -2.21875 9.78125 -2.21875 C 11.3125 -2.21875 12.507812 -2.785156 13.375 -3.921875 C 14.25 -5.054688 14.6875 -6.617188 14.6875 -8.609375 C 14.6875 -10.628906 14.25 -12.195312 13.375 -13.3125 C 12.507812 -14.4375 11.3125 -15 9.78125 -15 C 8.238281 -15 7.035156 -14.4375 6.171875 -13.3125 C 5.304688 -12.195312 4.875 -10.628906 4.875 -8.609375 C 4.875 -6.597656 5.304688 -5.03125 6.171875 -3.90625 Z M 6.171875 -3.90625 "/></g></g></g><g fill="#4b7b4b" fill-opacity="1"><g transform="translate(162.119373, 172.158608)"><g><path d="M 9.28125 0 L 9.03125 -1.953125 L 8.390625 -0.53125 C 7.523438 0.0507812 6.425781 0.34375 5.09375 0.34375 C 3.875 0.34375 2.859375 0.00390625 2.046875 -0.671875 C 1.234375 -1.359375 0.828125 -2.304688 0.828125 -3.515625 C 0.828125 -4.984375 1.445312 -6.113281 2.6875 -6.90625 C 3.925781 -7.695312 5.742188 -8.09375 8.140625 -8.09375 L 8.984375 -8.09375 L 8.984375 -8.359375 C 8.984375 -8.890625 8.96875 -9.304688 8.9375 -9.609375 C 8.820312 -10.679688 8.140625 -11.21875 6.890625 -11.21875 C 5.503906 -11.21875 4.765625 -10.46875 4.671875 -8.96875 L 1.328125 -8.9375 C 1.367188 -10.40625 1.914062 -11.554688 2.96875 -12.390625 C 4.03125 -13.222656 5.378906 -13.640625 7.015625 -13.640625 C 10.328125 -13.640625 12.097656 -12.332031 12.328125 -9.71875 C 12.378906 -9.082031 12.40625 -8.398438 12.40625 -7.671875 L 12.40625 -3.375 C 12.40625 -2.351562 12.488281 -1.226562 12.65625 0 Z M 6.421875 -2.078125 C 7.148438 -2.078125 7.757812 -2.328125 8.25 -2.828125 C 8.738281 -3.328125 8.984375 -4.015625 8.984375 -4.890625 L 8.984375 -5.96875 C 5.921875 -6.1875 4.390625 -5.460938 4.390625 -3.796875 C 4.390625 -2.648438 5.066406 -2.078125 6.421875 -2.078125 Z M 6.421875 -2.078125 "/></g></g></g><g fill="#4b7b4b" fill-opacity="1"><g transform="translate(177.078332, 172.158608)"><g><path d="M 6.125 -5.25 L 5.015625 -4.046875 L 5.015625 0 L 1.578125 0 L 1.578125 -18.359375 L 5.015625 -18.359375 L 5.015625 -7.21875 L 10.359375 -13.28125 L 14.5 -13.28125 L 8.609375 -7.109375 L 14.578125 0 L 10.234375 0 Z M 6.125 -5.25 "/></g></g></g><g fill="#4b7b4b" fill-opacity="1"><g transform="translate(192.561715, 172.158608)"><g><path d="M 8.34375 -13.609375 C 8.71875 -13.609375 9.039062 -13.578125 9.3125 -13.515625 L 9.3125 -10.734375 C 7.84375 -10.835938 6.757812 -10.523438 6.0625 -9.796875 C 5.363281 -9.078125 5.015625 -7.84375 5.015625 -6.09375 L 5.015625 0 L 1.578125 0 L 1.578125 -13.28125 L 5.015625 -13.28125 L 5.015625 -10.859375 L 6.0625 -12.703125 C 6.71875 -13.304688 7.476562 -13.609375 8.34375 -13.609375 Z M 8.34375 -13.609375 "/></g></g></g><g fill="#4b7b4b" fill-opacity="1"><g transform="translate(202.975655, 172.158608)"><g><path d="M 1.921875 -17.71875 C 2.273438 -18.0625 2.734375 -18.234375 3.296875 -18.234375 C 3.859375 -18.234375 4.3125 -18.0625 4.65625 -17.71875 C 5.007812 -17.375 5.1875 -16.9375 5.1875 -16.40625 C 5.1875 -15.851562 5.007812 -15.410156 4.65625 -15.078125 C 4.3125 -14.742188 3.859375 -14.578125 3.296875 -14.578125 C 2.734375 -14.578125 2.273438 -14.742188 1.921875 -15.078125 C 1.566406 -15.410156 1.390625 -15.851562 1.390625 -16.40625 C 1.390625 -16.9375 1.566406 -17.375 1.921875 -17.71875 Z M 5.015625 0 L 1.578125 0 L 1.578125 -13.28125 L 5.015625 -13.28125 Z M 5.015625 0 "/></g></g></g><g fill="#4b7b4b" fill-opacity="1"><g transform="translate(210.542717, 172.158608)"><g><path d="M 14.484375 -18.359375 L 14.484375 0 L 11.03125 0 L 11.03125 -2.046875 L 10.03125 -0.578125 C 9.238281 0.0351562 8.09375 0.34375 6.59375 0.34375 C 4.757812 0.34375 3.3125 -0.273438 2.25 -1.515625 C 1.195312 -2.765625 0.671875 -4.390625 0.671875 -6.390625 C 0.671875 -8.691406 1.273438 -10.472656 2.484375 -11.734375 C 3.703125 -13.003906 5.222656 -13.640625 7.046875 -13.640625 C 8.410156 -13.640625 9.445312 -13.390625 10.15625 -12.890625 L 11.03125 -11.515625 L 11.03125 -18.359375 Z M 7.59375 -2.078125 C 8.625 -2.078125 9.453125 -2.425781 10.078125 -3.125 C 10.710938 -3.832031 11.03125 -4.953125 11.03125 -6.484375 L 11.03125 -7.140625 C 11.03125 -8.523438 10.707031 -9.550781 10.0625 -10.21875 C 9.414062 -10.882812 8.632812 -11.21875 7.71875 -11.21875 C 6.6875 -11.21875 5.847656 -10.820312 5.203125 -10.03125 C 4.566406 -9.238281 4.25 -8.097656 4.25 -6.609375 C 4.25 -5.242188 4.550781 -4.144531 5.15625 -3.3125 C 5.757812 -2.488281 6.570312 -2.078125 7.59375 -2.078125 Z M 7.59375 -2.078125 "/></g></g></g><g fill="#4b7b4b" fill-opacity="1"><g transform="translate(227.574408, 172.158608)"><g><path d="M 14.484375 -13.28125 L 14.484375 -3.328125 C 14.484375 -2.085938 14.472656 -1.226562 14.453125 -0.75 C 14.390625 1.28125 13.738281 2.8125 12.5 3.84375 C 11.257812 4.875 9.566406 5.390625 7.421875 5.390625 C 5.484375 5.390625 3.972656 5 2.890625 4.21875 C 1.804688 3.4375 1.191406 2.3125 1.046875 0.84375 L 1.03125 0.59375 L 4.375 0.59375 L 4.390625 0.828125 C 4.472656 1.441406 4.785156 1.925781 5.328125 2.28125 C 5.867188 2.644531 6.582031 2.828125 7.46875 2.828125 C 8.550781 2.828125 9.394531 2.554688 10 2.015625 C 10.601562 1.472656 10.941406 0.675781 11.015625 -0.375 C 11.023438 -0.707031 11.03125 -1.25 11.03125 -2 L 11.03125 -2.328125 L 10.03125 -0.84375 C 9.238281 -0.226562 8.140625 0.078125 6.734375 0.078125 C 4.890625 0.078125 3.414062 -0.523438 2.3125 -1.734375 C 1.21875 -2.941406 0.671875 -4.523438 0.671875 -6.484375 C 0.671875 -8.785156 1.273438 -10.550781 2.484375 -11.78125 C 3.703125 -13.019531 5.222656 -13.640625 7.046875 -13.640625 C 8.410156 -13.640625 9.445312 -13.390625 10.15625 -12.890625 L 11.03125 -11.515625 L 11.03125 -13.28125 Z M 5.140625 -3.546875 C 5.742188 -2.742188 6.5625 -2.34375 7.59375 -2.34375 C 8.625 -2.34375 9.453125 -2.695312 10.078125 -3.40625 C 10.710938 -4.113281 11.03125 -5.234375 11.03125 -6.765625 L 11.03125 -7.140625 C 11.03125 -8.523438 10.707031 -9.550781 10.0625 -10.21875 C 9.414062 -10.882812 8.632812 -11.21875 7.71875 -11.21875 C 6.664062 -11.21875 5.820312 -10.84375 5.1875 -10.09375 C 4.5625 -9.351562 4.25 -8.253906 4.25 -6.796875 C 4.25 -5.429688 4.546875 -4.347656 5.140625 -3.546875 Z M 5.140625 -3.546875 "/></g></g></g><g fill="#4b7b4b" fill-opacity="1"><g transform="translate(244.606094, 172.158608)"><g><path d="M 13.640625 -6.921875 C 13.640625 -6.429688 13.617188 -6.039062 13.578125 -5.75 L 4.140625 -5.75 C 4.335938 -3.300781 5.363281 -2.078125 7.21875 -2.078125 C 7.96875 -2.078125 8.585938 -2.273438 9.078125 -2.671875 C 9.566406 -3.066406 9.867188 -3.613281 9.984375 -4.3125 L 13.4375 -4.3125 C 13.101562 -2.800781 12.375 -1.644531 11.25 -0.84375 C 10.125 -0.0507812 8.753906 0.34375 7.140625 0.34375 C 5.222656 0.34375 3.664062 -0.25 2.46875 -1.4375 C 1.269531 -2.625 0.671875 -4.34375 0.671875 -6.59375 C 0.671875 -8.65625 1.289062 -10.34375 2.53125 -11.65625 C 3.769531 -12.976562 5.398438 -13.640625 7.421875 -13.640625 C 9.367188 -13.640625 10.890625 -12.992188 11.984375 -11.703125 C 13.085938 -10.421875 13.640625 -8.828125 13.640625 -6.921875 Z M 7.265625 -11.21875 C 5.546875 -11.21875 4.539062 -10.140625 4.25 -7.984375 L 10.09375 -7.984375 C 9.851562 -10.140625 8.910156 -11.21875 7.265625 -11.21875 Z M 7.265625 -11.21875 "/></g></g></g><g fill="#4b7b4b" fill-opacity="1"><g transform="translate(142.090968, 206.658606)"><g><path d="M 5.671875 -14.53125 L 5.671875 -9.984375 L 13.53125 -9.984375 L 13.53125 -7.265625 L 5.671875 -7.265625 L 5.671875 0 L 2.21875 0 L 2.21875 -17.234375 L 14.40625 -17.234375 L 14.40625 -14.53125 Z M 5.671875 -14.53125 "/></g></g></g><g fill="#4b7b4b" fill-opacity="1"><g transform="translate(157.824074, 206.658606)"><g><path d="M 9.28125 0 L 9.03125 -1.953125 L 8.390625 -0.53125 C 7.523438 0.0507812 6.425781 0.34375 5.09375 0.34375 C 3.875 0.34375 2.859375 0.00390625 2.046875 -0.671875 C 1.234375 -1.359375 0.828125 -2.304688 0.828125 -3.515625 C 0.828125 -4.984375 1.445312 -6.113281 2.6875 -6.90625 C 3.925781 -7.695312 5.742188 -8.09375 8.140625 -8.09375 L 8.984375 -8.09375 L 8.984375 -8.359375 C 8.984375 -8.890625 8.96875 -9.304688 8.9375 -9.609375 C 8.820312 -10.679688 8.140625 -11.21875 6.890625 -11.21875 C 5.503906 -11.21875 4.765625 -10.46875 4.671875 -8.96875 L 1.328125 -8.9375 C 1.367188 -10.40625 1.914062 -11.554688 2.96875 -12.390625 C 4.03125 -13.222656 5.378906 -13.640625 7.015625 -13.640625 C 10.328125 -13.640625 12.097656 -12.332031 12.328125 -9.71875 C 12.378906 -9.082031 12.40625 -8.398438 12.40625 -7.671875 L 12.40625 -3.375 C 12.40625 -2.351562 12.488281 -1.226562 12.65625 0 Z M 6.421875 -2.078125 C 7.148438 -2.078125 7.757812 -2.328125 8.25 -2.828125 C 8.738281 -3.328125 8.984375 -4.015625 8.984375 -4.890625 L 8.984375 -5.96875 C 5.921875 -6.1875 4.390625 -5.460938 4.390625 -3.796875 C 4.390625 -2.648438 5.066406 -2.078125 6.421875 -2.078125 Z M 6.421875 -2.078125 "/></g></g></g><g fill="#4b7b4b" fill-opacity="1"><g transform="translate(172.783033, 206.658606)"><g><path d="M 21.296875 -10.34375 C 21.378906 -9.769531 21.421875 -8.960938 21.421875 -7.921875 L 21.421875 0 L 17.984375 0 L 17.984375 -6.921875 C 17.984375 -7.765625 17.945312 -8.488281 17.875 -9.09375 C 17.695312 -10.507812 16.945312 -11.21875 15.625 -11.21875 C 14.007812 -11.21875 13.203125 -9.75 13.203125 -6.8125 L 13.203125 0 L 9.78125 0 L 9.78125 -6.921875 C 9.78125 -7.765625 9.75 -8.488281 9.6875 -9.09375 C 9.5 -10.507812 8.742188 -11.21875 7.421875 -11.21875 C 5.816406 -11.21875 5.015625 -9.75 5.015625 -6.8125 L 5.015625 0 L 1.578125 0 L 1.578125 -13.28125 L 5.015625 -13.28125 L 5.015625 -11.265625 L 6 -12.859375 C 6.726562 -13.378906 7.664062 -13.640625 8.8125 -13.640625 C 9.863281 -13.640625 10.734375 -13.410156 11.421875 -12.953125 C 12.109375 -12.492188 12.597656 -11.878906 12.890625 -11.109375 L 14.1875 -12.859375 C 14.914062 -13.378906 15.863281 -13.640625 17.03125 -13.640625 C 18.238281 -13.640625 19.207031 -13.328125 19.9375 -12.703125 C 20.675781 -12.085938 21.128906 -11.300781 21.296875 -10.34375 Z M 21.296875 -10.34375 "/></g></g></g><g fill="#4b7b4b" fill-opacity="1"><g transform="translate(196.582299, 206.658606)"><g><path d="M 1.921875 -17.71875 C 2.273438 -18.0625 2.734375 -18.234375 3.296875 -18.234375 C 3.859375 -18.234375 4.3125 -18.0625 4.65625 -17.71875 C 5.007812 -17.375 5.1875 -16.9375 5.1875 -16.40625 C 5.1875 -15.851562 5.007812 -15.410156 4.65625 -15.078125 C 4.3125 -14.742188 3.859375 -14.578125 3.296875 -14.578125 C 2.734375 -14.578125 2.273438 -14.742188 1.921875 -15.078125 C 1.566406 -15.410156 1.390625 -15.851562 1.390625 -16.40625 C 1.390625 -16.9375 1.566406 -17.375 1.921875 -17.71875 Z M 5.015625 0 L 1.578125 0 L 1.578125 -13.28125 L 5.015625 -13.28125 Z M 5.015625 0 "/></g></g></g><g fill="#4b7b4b" fill-opacity="1"><g transform="translate(204.149361, 206.658606)"><g><path d="M 4.921875 -18.359375 L 4.921875 -4.34375 C 4.921875 -3.757812 4.925781 -3.351562 4.9375 -3.125 C 4.976562 -2.769531 5.101562 -2.535156 5.3125 -2.421875 C 5.53125 -2.304688 5.921875 -2.265625 6.484375 -2.296875 L 6.484375 0.078125 C 5.890625 0.140625 5.1875 0.171875 4.375 0.171875 C 2.539062 0.171875 1.585938 -0.609375 1.515625 -2.171875 C 1.484375 -2.566406 1.46875 -3.265625 1.46875 -4.265625 L 1.46875 -18.359375 Z M 4.921875 -18.359375 "/></g></g></g><g fill="#4b7b4b" fill-opacity="1"><g transform="translate(212.041069, 206.658606)"><g><path d="M 14.15625 -13.28125 L 8.8125 0.5 C 8.113281 2.28125 7.351562 3.515625 6.53125 4.203125 C 5.71875 4.898438 4.628906 5.25 3.265625 5.25 C 2.679688 5.25 2.164062 5.210938 1.71875 5.140625 L 1.71875 2.765625 C 1.957031 2.804688 2.300781 2.828125 2.75 2.828125 C 3.925781 2.828125 4.757812 2.234375 5.25 1.046875 L 5.421875 0.625 L 0 -13.28125 L 3.84375 -13.28125 L 7.140625 -2.625 L 10.390625 -13.28125 Z M 14.15625 -13.28125 "/></g></g></g><g fill="#4b7b4b" fill-opacity="1"><g transform="translate(227.074942, 206.658606)"><g/></g></g><g fill="#4b7b4b" fill-opacity="1"><g transform="translate(232.843977, 206.658606)"><g><path d="M 20.796875 -17.234375 L 20.796875 0 L 17.359375 0 L 17.359375 -7.96875 C 17.359375 -10.695312 17.375 -12.660156 17.40625 -13.859375 C 16.9375 -11.859375 16.40625 -9.898438 15.8125 -7.984375 L 13.390625 0 L 9.640625 0 L 7.171875 -8.015625 C 6.535156 -10.128906 6.019531 -12.066406 5.625 -13.828125 C 5.65625 -12.628906 5.671875 -10.675781 5.671875 -7.96875 L 5.671875 0 L 2.21875 0 L 2.21875 -17.234375 L 7.671875 -17.234375 L 11.5625 -3.171875 L 15.453125 -17.234375 Z M 20.796875 -17.234375 "/></g></g></g><g fill="#4b7b4b" fill-opacity="1"><g transform="translate(256.168758, 206.658606)"><g><path d="M 13.640625 -6.921875 C 13.640625 -6.429688 13.617188 -6.039062 13.578125 -5.75 L 4.140625 -5.75 C 4.335938 -3.300781 5.363281 -2.078125 7.21875 -2.078125 C 7.96875 -2.078125 8.585938 -2.273438 9.078125 -2.671875 C 9.566406 -3.066406 9.867188 -3.613281 9.984375 -4.3125 L 13.4375 -4.3125 C 13.101562 -2.800781 12.375 -1.644531 11.25 -0.84375 C 10.125 -0.0507812 8.753906 0.34375 7.140625 0.34375 C 5.222656 0.34375 3.664062 -0.25 2.46875 -1.4375 C 1.269531 -2.625 0.671875 -4.34375 0.671875 -6.59375 C 0.671875 -8.65625 1.289062 -10.34375 2.53125 -11.65625 C 3.769531 -12.976562 5.398438 -13.640625 7.421875 -13.640625 C 9.367188 -13.640625 10.890625 -12.992188 11.984375 -11.703125 C 13.085938 -10.421875 13.640625 -8.828125 13.640625 -6.921875 Z M 7.265625 -11.21875 C 5.546875 -11.21875 4.539062 -10.140625 4.25 -7.984375 L 10.09375 -7.984375 C 9.851562 -10.140625 8.910156 -11.21875 7.265625 -11.21875 Z M 7.265625 -11.21875 "/></g></g></g><g fill="#4b7b4b" fill-opacity="1"><g transform="translate(271.527277, 206.658606)"><g><path d="M 14.484375 -18.359375 L 14.484375 0 L 11.03125 0 L 11.03125 -2.046875 L 10.03125 -0.578125 C 9.238281 0.0351562 8.09375 0.34375 6.59375 0.34375 C 4.757812 0.34375 3.3125 -0.273438 2.25 -1.515625 C 1.195312 -2.765625 0.671875 -4.390625 0.671875 -6.390625 C 0.671875 -8.691406 1.273438 -10.472656 2.484375 -11.734375 C 3.703125 -13.003906 5.222656 -13.640625 7.046875 -13.640625 C 8.410156 -13.640625 9.445312 -13.390625 10.15625 -12.890625 L 11.03125 -11.515625 L 11.03125 -18.359375 Z M 7.59375 -2.078125 C 8.625 -2.078125 9.453125 -2.425781 10.078125 -3.125 C 10.710938 -3.832031 11.03125 -4.953125 11.03125 -6.484375 L 11.03125 -7.140625 C 11.03125 -8.523438 10.707031 -9.550781 10.0625 -10.21875 C 9.414062 -10.882812 8.632812 -11.21875 7.71875 -11.21875 C 6.6875 -11.21875 5.847656 -10.820312 5.203125 -10.03125 C 4.566406 -9.238281 4.25 -8.097656 4.25 -6.609375 C 4.25 -5.242188 4.550781 -4.144531 5.15625 -3.3125 C 5.757812 -2.488281 6.570312 -2.078125 7.59375 -2.078125 Z M 7.59375 -2.078125 "/></g></g></g><g fill="#4b7b4b" fill-opacity="1"><g transform="translate(288.558968, 206.658606)"><g><path d="M 1.921875 -17.71875 C 2.273438 -18.0625 2.734375 -18.234375 3.296875 -18.234375 C 3.859375 -18.234375 4.3125 -18.0625 4.65625 -17.71875 C 5.007812 -17.375 5.1875 -16.9375 5.1875 -16.40625 C 5.1875 -15.851562 5.007812 -15.410156 4.65625 -15.078125 C 4.3125 -14.742188 3.859375 -14.578125 3.296875 -14.578125 C 2.734375 -14.578125 2.273438 -14.742188 1.921875 -15.078125 C 1.566406 -15.410156 1.390625 -15.851562 1.390625 -16.40625 C 1.390625 -16.9375 1.566406 -17.375 1.921875 -17.71875 Z M 5.015625 0 L 1.578125 0 L 1.578125 -13.28125 L 5.015625 -13.28125 Z M 5.015625 0 "/></g></g></g><g fill="#4b7b4b" fill-opacity="1"><g transform="translate(296.12603, 206.658606)"><g><path d="M 7.3125 -13.640625 C 9.0625 -13.640625 10.476562 -13.160156 11.5625 -12.203125 C 12.644531 -11.242188 13.253906 -10.003906 13.390625 -8.484375 L 9.984375 -8.484375 C 9.679688 -10.304688 8.765625 -11.21875 7.234375 -11.21875 C 6.328125 -11.21875 5.601562 -10.84375 5.0625 -10.09375 C 4.519531 -9.34375 4.25 -8.234375 4.25 -6.765625 C 4.25 -5.179688 4.515625 -4.003906 5.046875 -3.234375 C 5.578125 -2.460938 6.300781 -2.078125 7.21875 -2.078125 C 7.894531 -2.078125 8.46875 -2.289062 8.9375 -2.71875 C 9.414062 -3.15625 9.738281 -3.78125 9.90625 -4.59375 L 13.359375 -4.59375 C 13.078125 -3 12.375 -1.773438 11.25 -0.921875 C 10.125 -0.078125 8.710938 0.34375 7.015625 0.34375 C 5.128906 0.34375 3.597656 -0.25 2.421875 -1.4375 C 1.253906 -2.625 0.671875 -4.328125 0.671875 -6.546875 C 0.671875 -8.742188 1.300781 -10.472656 2.5625 -11.734375 C 3.832031 -13.003906 5.414062 -13.640625 7.3125 -13.640625 Z M 7.3125 -13.640625 "/></g></g></g><g fill="#4b7b4b" fill-opacity="1"><g transform="translate(311.060019, 206.658606)"><g><path d="M 9.28125 0 L 9.03125 -1.953125 L 8.390625 -0.53125 C 7.523438 0.0507812 6.425781 0.34375 5.09375 0.34375 C 3.875 0.34375 2.859375 0.00390625 2.046875 -0.671875 C 1.234375 -1.359375 0.828125 -2.304688 0.828125 -3.515625 C 0.828125 -4.984375 1.445312 -6.113281 2.6875 -6.90625 C 3.925781 -7.695312 5.742188 -8.09375 8.140625 -8.09375 L 8.984375 -8.09375 L 8.984375 -8.359375 C 8.984375 -8.890625 8.96875 -9.304688 8.9375 -9.609375 C 8.820312 -10.679688 8.140625 -11.21875 6.890625 -11.21875 C 5.503906 -11.21875 4.765625 -10.46875 4.671875 -8.96875 L 1.328125 -8.9375 C 1.367188 -10.40625 1.914062 -11.554688 2.96875 -12.390625 C 4.03125 -13.222656 5.378906 -13.640625 7.015625 -13.640625 C 10.328125 -13.640625 12.097656 -12.332031 12.328125 -9.71875 C 12.378906 -9.082031 12.40625 -8.398438 12.40625 -7.671875 L 12.40625 -3.375 C 12.40625 -2.351562 12.488281 -1.226562 12.65625 0 Z M 6.421875 -2.078125 C 7.148438 -2.078125 7.757812 -2.328125 8.25 -2.828125 C 8.738281 -3.328125 8.984375 -4.015625 8.984375 -4.890625 L 8.984375 -5.96875 C 5.921875 -6.1875 4.390625 -5.460938 4.390625 -3.796875 C 4.390625 -2.648438 5.066406 -2.078125 6.421875 -2.078125 Z M 6.421875 -2.078125 "/></g></g></g><g fill="#4b7b4b" fill-opacity="1"><g transform="translate(326.01898, 206.658606)"><g><path d="M 4.921875 -18.359375 L 4.921875 -4.34375 C 4.921875 -3.757812 4.925781 -3.351562 4.9375 -3.125 C 4.976562 -2.769531 5.101562 -2.535156 5.3125 -2.421875 C 5.53125 -2.304688 5.921875 -2.265625 6.484375 -2.296875 L 6.484375 0.078125 C 5.890625 0.140625 5.1875 0.171875 4.375 0.171875 C 2.539062 0.171875 1.585938 -0.609375 1.515625 -2.171875 C 1.484375 -2.566406 1.46875 -3.265625 1.46875 -4.265625 L 1.46875 -18.359375 Z M 4.921875 -18.359375 "/></g></g></g><g fill="#4b7b4b" fill-opacity="1"><g transform="translate(142.090968, 241.158603)"><g><path d="M 9.609375 -17.578125 C 11.859375 -17.578125 13.613281 -17.03125 14.875 -15.9375 C 16.144531 -14.851562 16.867188 -13.421875 17.046875 -11.640625 L 17.078125 -11.390625 L 13.640625 -11.390625 L 13.578125 -11.640625 C 13.128906 -13.878906 11.789062 -15 9.5625 -15 C 8.164062 -15 7.039062 -14.4375 6.1875 -13.3125 C 5.34375 -12.195312 4.921875 -10.664062 4.921875 -8.71875 C 4.921875 -6.632812 5.34375 -5.03125 6.1875 -3.90625 C 7.039062 -2.78125 8.148438 -2.21875 9.515625 -2.21875 C 10.609375 -2.21875 11.488281 -2.523438 12.15625 -3.140625 C 12.820312 -3.753906 13.273438 -4.613281 13.515625 -5.71875 L 13.5625 -5.96875 L 16.984375 -5.96875 L 16.953125 -5.71875 C 16.765625 -3.851562 16 -2.375 14.65625 -1.28125 C 13.3125 -0.195312 11.546875 0.34375 9.359375 0.34375 C 6.929688 0.34375 4.972656 -0.453125 3.484375 -2.046875 C 2.003906 -3.640625 1.265625 -5.796875 1.265625 -8.515625 C 1.265625 -11.273438 2.046875 -13.472656 3.609375 -15.109375 C 5.179688 -16.753906 7.179688 -17.578125 9.609375 -17.578125 Z M 9.609375 -17.578125 "/></g></g></g><g fill="#4b7b4b" fill-opacity="1"><g transform="translate(160.945655, 241.158603)"><g><path d="M 13.640625 -6.921875 C 13.640625 -6.429688 13.617188 -6.039062 13.578125 -5.75 L 4.140625 -5.75 C 4.335938 -3.300781 5.363281 -2.078125 7.21875 -2.078125 C 7.96875 -2.078125 8.585938 -2.273438 9.078125 -2.671875 C 9.566406 -3.066406 9.867188 -3.613281 9.984375 -4.3125 L 13.4375 -4.3125 C 13.101562 -2.800781 12.375 -1.644531 11.25 -0.84375 C 10.125 -0.0507812 8.753906 0.34375 7.140625 0.34375 C 5.222656 0.34375 3.664062 -0.25 2.46875 -1.4375 C 1.269531 -2.625 0.671875 -4.34375 0.671875 -6.59375 C 0.671875 -8.65625 1.289062 -10.34375 2.53125 -11.65625 C 3.769531 -12.976562 5.398438 -13.640625 7.421875 -13.640625 C 9.367188 -13.640625 10.890625 -12.992188 11.984375 -11.703125 C 13.085938 -10.421875 13.640625 -8.828125 13.640625 -6.921875 Z M 7.265625 -11.21875 C 5.546875 -11.21875 4.539062 -10.140625 4.25 -7.984375 L 10.09375 -7.984375 C 9.851562 -10.140625 8.910156 -11.21875 7.265625 -11.21875 Z M 7.265625 -11.21875 "/></g></g></g><g fill="#4b7b4b" fill-opacity="1"><g transform="translate(176.304173, 241.158603)"><g><path d="M 13.953125 -9.90625 C 14.023438 -9.3125 14.0625 -8.503906 14.0625 -7.484375 L 14.0625 0 L 10.609375 0 L 10.609375 -7.015625 C 10.609375 -7.796875 10.59375 -8.410156 10.5625 -8.859375 C 10.445312 -10.429688 9.597656 -11.21875 8.015625 -11.21875 C 7.117188 -11.21875 6.394531 -10.796875 5.84375 -9.953125 C 5.289062 -9.109375 5.015625 -7.8125 5.015625 -6.0625 L 5.015625 0 L 1.578125 0 L 1.578125 -13.28125 L 5.015625 -13.28125 L 5.015625 -11.140625 L 6.046875 -12.703125 C 6.910156 -13.328125 7.972656 -13.640625 9.234375 -13.640625 C 10.628906 -13.640625 11.734375 -13.3125 12.546875 -12.65625 C 13.359375 -12.007812 13.828125 -11.09375 13.953125 -9.90625 Z M 13.953125 -9.90625 "/></g></g></g><g fill="#4b7b4b" fill-opacity="1"><g transform="translate(192.736512, 241.158603)"><g><path d="M 5.6875 -10.90625 L 5.6875 -4.765625 C 5.6875 -4.210938 5.695312 -3.820312 5.71875 -3.59375 C 5.769531 -2.945312 5.960938 -2.523438 6.296875 -2.328125 C 6.628906 -2.140625 7.269531 -2.078125 8.21875 -2.140625 L 8.21875 0.09375 C 7.5 0.21875 6.738281 0.28125 5.9375 0.28125 C 4.675781 0.28125 3.773438 0.0664062 3.234375 -0.359375 C 2.691406 -0.785156 2.378906 -1.484375 2.296875 -2.453125 C 2.265625 -2.847656 2.25 -3.488281 2.25 -4.375 L 2.25 -10.90625 L 0.296875 -10.90625 L 0.296875 -13.1875 L 2.25 -13.1875 L 2.25 -16.453125 L 5.6875 -16.453125 L 5.6875 -13.1875 L 8.4375 -13.1875 L 8.4375 -10.90625 Z M 5.6875 -10.90625 "/></g></g></g><g fill="#4b7b4b" fill-opacity="1"><g transform="translate(202.675979, 241.158603)"><g><path d="M 13.640625 -6.921875 C 13.640625 -6.429688 13.617188 -6.039062 13.578125 -5.75 L 4.140625 -5.75 C 4.335938 -3.300781 5.363281 -2.078125 7.21875 -2.078125 C 7.96875 -2.078125 8.585938 -2.273438 9.078125 -2.671875 C 9.566406 -3.066406 9.867188 -3.613281 9.984375 -4.3125 L 13.4375 -4.3125 C 13.101562 -2.800781 12.375 -1.644531 11.25 -0.84375 C 10.125 -0.0507812 8.753906 0.34375 7.140625 0.34375 C 5.222656 0.34375 3.664062 -0.25 2.46875 -1.4375 C 1.269531 -2.625 0.671875 -4.34375 0.671875 -6.59375 C 0.671875 -8.65625 1.289062 -10.34375 2.53125 -11.65625 C 3.769531 -12.976562 5.398438 -13.640625 7.421875 -13.640625 C 9.367188 -13.640625 10.890625 -12.992188 11.984375 -11.703125 C 13.085938 -10.421875 13.640625 -8.828125 13.640625 -6.921875 Z M 7.265625 -11.21875 C 5.546875 -11.21875 4.539062 -10.140625 4.25 -7.984375 L 10.09375 -7.984375 C 9.851562 -10.140625 8.910156 -11.21875 7.265625 -11.21875 Z M 7.265625 -11.21875 "/></g></g></g><g fill="#4b7b4b" fill-opacity="1"><g transform="translate(218.034499, 241.158603)"><g><path d="M 8.34375 -13.609375 C 8.71875 -13.609375 9.039062 -13.578125 9.3125 -13.515625 L 9.3125 -10.734375 C 7.84375 -10.835938 6.757812 -10.523438 6.0625 -9.796875 C 5.363281 -9.078125 5.015625 -7.84375 5.015625 -6.09375 L 5.015625 0 L 1.578125 0 L 1.578125 -13.28125 L 5.015625 -13.28125 L 5.015625 -10.859375 L 6.0625 -12.703125 C 6.71875 -13.304688 7.476562 -13.609375 8.34375 -13.609375 Z M 8.34375 -13.609375 "/></g></g></g></svg>