<svg xmlns="http://www.w3.org/2000/svg" xmlns:xlink="http://www.w3.org/1999/xlink" width="500" zoomAndPan="magnify" viewBox="0 0 375 374.999991" height="500" preserveAspectRatio="xMidYMid meet" version="1.0"><rect x="-37.5" width="450" fill="#ffffff" y="-37.499999" height="449.999989" fill-opacity="1"/><rect x="-37.5" width="450" fill="#fefffe" y="-37.499999" height="449.999989" fill-opacity="1"/><path fill="#6d9b51" d="M 298.820312 308.457031 C 268.152344 305.996094 229.074219 297.011719 204.296875 282.070312 C 207.164062 280.511719 211.128906 278.242188 215.863281 275.230469 C 225.160156 269.316406 238.519531 259.804688 249.371094 248.082031 C 254.058594 243.015625 257.871094 237.28125 260.691406 231.035156 C 263.507812 224.808594 265.269531 218.214844 265.941406 211.449219 C 266.160156 209.265625 266.292969 207.328125 266.339844 205.679688 C 266.511719 199.6875 265.40625 193.816406 263.054688 188.226562 C 260.8125 182.882812 257.539062 178.058594 253.339844 173.882812 C 249.136719 169.710938 244.242188 166.417969 238.78125 164.101562 C 233.0625 161.675781 227.023438 160.445312 220.820312 160.445312 L 220.683594 160.445312 C 209.894531 160.480469 199.53125 164.179688 191.382812 170.882812 C 183.191406 164.144531 172.773438 160.445312 161.925781 160.445312 C 157.28125 160.445312 152.597656 161.125 148.007812 162.464844 C 141.050781 164.496094 134.644531 168.210938 129.488281 173.21875 C 124.339844 178.214844 120.519531 184.414062 118.4375 191.148438 C 117.660156 193.667969 117.101562 196.570312 116.78125 199.777344 C 114.933594 218.054688 121.542969 236.363281 134.90625 250.003906 C 145.835938 261.167969 158.945312 270.195312 168.011719 275.804688 C 172.320312 278.46875 175.960938 280.519531 178.691406 281.980469 C 153.917969 296.972656 114.742188 305.992188 84.015625 308.457031 L 84.015625 158.390625 L 95.691406 148.761719 L 111.882812 135.414062 L 192.113281 69.269531 L 262.511719 132.835938 L 265.371094 135.414062 L 280.152344 148.761719 L 280.691406 149.25 L 298.820312 165.621094 Z M 192.605469 272.25 C 192.339844 272.277344 192.0625 272.308594 191.785156 272.339844 C 191.679688 272.351562 191.550781 272.363281 191.417969 272.378906 C 191.28125 272.367188 191.15625 272.351562 191.042969 272.339844 C 190.960938 272.328125 190.875 272.320312 190.785156 272.308594 C 187.960938 270.996094 182.140625 267.96875 174.96875 263.492188 C 166.835938 258.414062 155.109375 250.285156 145.417969 240.390625 C 134.9375 229.691406 129.75 215.378906 131.1875 201.132812 C 131.417969 198.820312 131.796875 196.804688 132.308594 195.144531 C 135.179688 185.859375 142.613281 178.648438 152.195312 175.851562 C 155.425781 174.910156 158.699219 174.429688 161.925781 174.429688 C 172.488281 174.429688 182.234375 179.558594 187.996094 188.144531 C 188.746094 189.257812 190.007812 189.921875 191.378906 189.921875 C 192.75 189.921875 194.011719 189.257812 194.761719 188.144531 C 200.5 179.589844 210.203125 174.464844 220.71875 174.429688 L 220.824219 174.429688 C 229.007812 174.429688 237.078125 177.785156 242.960938 183.636719 C 248.851562 189.484375 252.097656 197.378906 251.871094 205.289062 C 251.832031 206.613281 251.71875 208.238281 251.53125 210.113281 C 250.484375 220.695312 245.886719 230.863281 238.578125 238.757812 C 228.996094 249.113281 217.082031 257.652344 208.78125 262.996094 C 201.480469 267.6875 195.535156 270.855469 192.605469 272.25 Z M 191.636719 272.695312 C 191.527344 272.644531 191.402344 272.59375 191.273438 272.535156 C 191.320312 272.527344 191.367188 272.519531 191.410156 272.511719 C 191.566406 272.53125 191.722656 272.554688 191.878906 272.585938 C 191.792969 272.625 191.714844 272.660156 191.636719 272.695312 Z M 342.085938 186.417969 L 312.636719 159.824219 L 290.121094 139.5 C 290.136719 139.296875 290.144531 139.097656 290.144531 138.894531 L 290.144531 102.246094 C 290.144531 98.855469 287.300781 96.109375 283.792969 96.109375 L 268.863281 96.109375 C 265.355469 96.109375 262.511719 98.855469 262.511719 102.246094 L 262.511719 114.570312 L 197.035156 55.445312 C 194.46875 53.128906 190.511719 53.042969 187.839844 55.242188 L 90.601562 135.414062 L 70.199219 152.238281 L 40.71875 176.539062 C 37.816406 178.933594 37.472656 183.144531 39.949219 185.949219 C 42.421875 188.75 46.78125 189.085938 49.6875 186.695312 L 70.199219 169.78125 L 70.199219 315.269531 C 70.199219 318.957031 73.289062 321.945312 77.105469 321.945312 L 81.929688 321.945312 C 81.929688 321.945312 83.578125 321.882812 84.015625 321.847656 C 103.203125 320.390625 124.710938 316.5 143.371094 311.09375 C 154.707031 307.804688 165 303.988281 173.96875 299.742188 C 180.496094 296.652344 186.332031 293.324219 191.417969 289.804688 C 193.957031 291.566406 196.6875 293.277344 199.601562 294.9375 C 202.507812 296.59375 205.597656 298.199219 208.867188 299.742188 C 217.832031 303.988281 228.125 307.804688 239.460938 311.09375 C 258.121094 316.5 279.628906 320.390625 298.820312 321.847656 C 299.253906 321.882812 300.902344 321.945312 300.902344 321.945312 L 305.726562 321.945312 C 309.542969 321.945312 312.636719 318.957031 312.636719 315.269531 L 312.636719 178.09375 L 332.652344 196.167969 C 333.984375 197.371094 335.679688 197.964844 337.367188 197.964844 C 339.210938 197.964844 341.054688 197.257812 342.414062 195.851562 C 345.019531 193.15625 344.871094 188.933594 342.085938 186.417969 " fill-opacity="1" fill-rule="nonzero"/><path fill="#6d9b51" d="M 206.753906 216.480469 L 198.316406 216.480469 L 198.316406 208.046875 C 198.316406 204.164062 195.167969 201.015625 191.285156 201.015625 C 187.402344 201.015625 184.253906 204.164062 184.253906 208.046875 L 184.253906 216.480469 L 175.816406 216.480469 C 171.933594 216.480469 168.785156 219.628906 168.785156 223.511719 C 168.785156 227.398438 171.933594 230.542969 175.816406 230.542969 L 184.253906 230.542969 L 184.253906 238.980469 C 184.253906 242.863281 187.402344 246.011719 191.285156 246.011719 C 195.167969 246.011719 198.316406 242.863281 198.316406 238.980469 L 198.316406 230.542969 L 206.753906 230.542969 C 210.636719 230.542969 213.785156 227.398438 213.785156 223.511719 C 213.785156 219.628906 210.636719 216.480469 206.753906 216.480469 " fill-opacity="1" fill-rule="nonzero"/></svg>